<?xml version="1.0" encoding="UTF-8" standalone="no"?>
<!-- Created with Inkscape (http://www.inkscape.org/) -->

<svg
   xmlns:dc="http://purl.org/dc/elements/1.1/"
   xmlns:cc="http://creativecommons.org/ns#"
   xmlns:rdf="http://www.w3.org/1999/02/22-rdf-syntax-ns#"
   xmlns:svg="http://www.w3.org/2000/svg"
   xmlns="http://www.w3.org/2000/svg"
   xmlns:sodipodi="http://sodipodi.sourceforge.net/DTD/sodipodi-0.dtd"
   xmlns:inkscape="http://www.inkscape.org/namespaces/inkscape"
   version="1.1"
   id="svg2"
   xml:space="preserve"
   width="171.99979"
   height="116.74302"
   viewBox="0 0 171.99979 116.74302"
   sodipodi:docname="paypal-me-logo.svg"
   inkscape:version="0.92.3 (2405546, 2018-03-11)"
   inkscape:export-filename="/home/jr0cket/projects/practicalli/practicalli-landing-page/resources/public/images/paypal-me-logo.png"
   inkscape:export-xdpi="90"
   inkscape:export-ydpi="90"><metadata
     id="metadata8"><rdf:RDF><cc:Work
         rdf:about=""><dc:format>image/svg+xml</dc:format><dc:type
           rdf:resource="http://purl.org/dc/dcmitype/StillImage" /><dc:title></dc:title></cc:Work></rdf:RDF></metadata><defs
     id="defs6" /><sodipodi:namedview
     pagecolor="#ffffff"
     bordercolor="#666666"
     borderopacity="1"
     objecttolerance="10"
     gridtolerance="10"
     guidetolerance="10"
     inkscape:pageopacity="0"
     inkscape:pageshadow="2"
     inkscape:window-width="1920"
     inkscape:window-height="1016"
     id="namedview4"
     showgrid="false"
     fit-margin-top="8"
     fit-margin-left="8"
     fit-margin-right="8"
     fit-margin-bottom="8"
     inkscape:zoom="1"
     inkscape:cx="-54.072184"
     inkscape:cy="29.292736"
     inkscape:window-x="0"
     inkscape:window-y="27"
     inkscape:window-maximized="1"
     inkscape:current-layer="g10" /><g
     id="g10"
     inkscape:groupmode="layer"
     inkscape:label="ink_ext_XXXXXX"
     transform="matrix(1.3333333,0,0,-1.3333333,-280,559.24835)"><g
       id="g12"
       transform="matrix(0.06499997,0,0,0.06499997,75.600068,118.25776)"><path
         d="m 3073.72,4366.79 c 92.91,0 91.23,0 184.14,0 128.41,0 214.59,-41.84 190.98,-191.8 -31.39,-199.47 -205.8,-200.22 -243.92,-200.22 h -20.22 c -19.02,0.52 -32.08,-12.41 -35.18,-32.14 l -24.19,-157.34 c -5.56,-20.77 -14.87,-28.4 -37.33,-28.4 l -119.82,0.42 c -12.74,0 -20.8,11.25 -19.04,22.44 l 88.97,558.88 c 1.81,11.48 11.77,28.16 35.61,28.16"
         style="fill:#009ae0;fill-opacity:1;fill-rule:evenodd;stroke:none"
         id="path14"
         inkscape:connector-curvature="0" /><path
         d="m 2926.02,4541.21 c 92.9,0 153.1,0 246,0 128.41,0 239.49,-47.78 215.29,-201.54 -30.47,-193.99 -166.88,-233.6 -283.49,-234.1 h -71.84 c -19.02,0.52 -33.27,-13.17 -36.37,-32.9 l -35.86,-227.85 H 2807.8 c -11.69,0 -20.8,11.25 -19.04,22.44 l 101.65,645.79 c 1.8,11.48 11.77,28.16 35.61,28.16"
         style="fill:#002c8a;fill-opacity:1;fill-rule:evenodd;stroke:none"
         id="path16"
         inkscape:connector-curvature="0" /><path
         d="m 3257.86,4366.79 h -184.14 c -23.84,0 -33.8,-16.68 -35.61,-28.16 l -41.7,-261.93 c 4.31,17.54 17.88,29.35 35.57,28.87 h 71.84 c 116.61,0.5 253.02,40.11 283.49,234.1 0.14,0.87 0.27,1.74 0.4,2.61 -33.57,17.77 -78.31,24.51 -129.85,24.51"
         style="fill:#001f6b;fill-opacity:1;fill-rule:evenodd;stroke:none"
         id="path18"
         inkscape:connector-curvature="0" /><path
         d="m 2980.79,3611.2 c -5.1,-33.5 -30.7,-33.5 -55.47,-33.5 h -14.07 l 9.9,62.57 c 0.59,3.78 3.82,6.57 7.67,6.57 h 6.45 c 16.85,0 32.77,0 41,-9.62 4.89,-5.73 6.38,-14.26 4.52,-26.02 z m -10.77,87.44 h -93.39 c -6.37,0 -11.81,-4.64 -12.81,-10.94 l -37.77,-239.42 c -0.75,-4.72 2.92,-8.99 7.68,-8.99 h 47.92 c 4.45,0 8.26,3.26 8.96,7.68 l 10.72,67.86 c 0.98,6.32 6.42,10.96 12.8,10.96 h 29.54 c 61.51,0 97,29.76 106.29,88.74 4.17,25.81 0.15,46.08 -11.92,60.27 -13.26,15.6 -36.78,23.84 -68.02,23.84"
         style="fill:#009ae0;fill-opacity:1;fill-rule:evenodd;stroke:none"
         id="path20"
         inkscape:connector-curvature="0" /><path
         d="m 3186.77,3525.26 c -4.29,-25.55 -24.59,-42.69 -50.45,-42.69 -12.95,0 -23.36,4.16 -30.02,12.05 -6.6,7.84 -9.1,19 -7.02,31.41 4.05,25.33 24.64,43.04 50.11,43.04 12.69,0 23,-4.22 29.8,-12.17 6.85,-8.04 9.55,-19.27 7.58,-31.64 z m 62.32,87.01 h -44.68 c -3.85,0 -7.11,-2.77 -7.66,-6.56 l -2,-12.5 -3.12,4.52 c -9.68,14.06 -31.25,18.75 -52.81,18.75 -49.41,0 -91.6,-37.41 -99.81,-89.91 -4.26,-26.19 1.8,-51.23 16.65,-68.68 13.66,-16.06 33.11,-22.75 56.32,-22.75 39.81,0 61.87,25.6 61.87,25.6 l -1.99,-12.42 c -0.74,-4.76 2.9,-9.02 7.7,-9.02 h 40.26 c 6.37,0 11.79,4.64 12.82,10.98 l 24.16,153.02 c 0.74,4.7 -2.92,8.97 -7.71,8.97"
         style="fill:#009ae0;fill-opacity:1;fill-rule:evenodd;stroke:none"
         id="path22"
         inkscape:connector-curvature="0" /><path
         d="m 3301.8,3692.07 -38.33,-243.79 c -0.73,-4.72 2.92,-8.99 7.68,-8.99 h 38.52 c 6.41,0 11.83,4.64 12.82,10.96 l 37.79,239.41 c 0.06,0.32 0.09,0.66 0.1,0.98 v 0.54 c -0.16,4.08 -3.52,7.48 -7.75,7.48 h -43.16 c -3.81,-0.02 -7.09,-2.8 -7.67,-6.59"
         style="fill:#009ae0;fill-opacity:1;fill-rule:evenodd;stroke:none"
         id="path24"
         inkscape:connector-curvature="0" /><path
         d="m 2314.82,3611.2 c -5.11,-33.5 -30.7,-33.5 -55.46,-33.5 h -14.09 l 9.89,62.57 c 0.59,3.78 3.87,6.57 7.69,6.57 h 6.45 c 16.86,0 32.77,0 40.99,-9.62 4.9,-5.73 6.4,-14.26 4.53,-26.02 z m -10.77,87.44 h -93.37 c -6.39,0 -11.82,-4.64 -12.82,-10.94 l -37.76,-239.42 c -0.76,-4.72 2.91,-8.99 7.7,-8.99 h 44.58 c 6.39,0 11.82,4.64 12.82,10.96 l 10.18,64.58 c 0.98,6.32 6.43,10.96 12.8,10.96 h 29.57 c 61.5,0 96.99,29.76 106.26,88.74 4.17,25.81 0.18,46.08 -11.91,60.27 -13.27,15.6 -36.8,23.84 -68.05,23.84"
         style="fill:#002c8a;fill-opacity:1;fill-rule:evenodd;stroke:none"
         id="path26"
         inkscape:connector-curvature="0" /><path
         d="m 2520.82,3525.26 c -4.32,-25.55 -24.59,-42.69 -50.44,-42.69 -12.99,0 -23.36,4.16 -30.03,12.05 -6.61,7.84 -9.12,19 -7.01,31.41 4.02,25.33 24.63,43.04 50.1,43.04 12.69,0 23.02,-4.22 29.81,-12.17 6.82,-8.04 9.52,-19.27 7.57,-31.64 z m 62.32,87.01 h -44.71 c -3.82,0 -7.1,-2.77 -7.68,-6.56 l -1.99,-12.5 -3.13,4.52 c -9.68,14.06 -31.26,18.75 -52.8,18.75 -49.41,0 -91.61,-37.41 -99.82,-89.91 -4.28,-26.19 1.8,-51.23 16.65,-68.68 13.63,-16.06 33.12,-22.75 56.31,-22.75 39.81,0 61.89,25.6 61.89,25.6 l -1.99,-12.42 c -0.75,-4.76 2.9,-9.02 7.67,-9.02 h 40.27 c 6.4,0 11.81,4.64 12.83,10.98 l 24.15,153.02 c 0.78,4.7 -2.88,8.97 -7.65,8.97"
         style="fill:#002c8a;fill-opacity:1;fill-rule:evenodd;stroke:none"
         id="path28"
         inkscape:connector-curvature="0" /><path
         d="m 2821.25,3612.27 h -44.93 c -4.28,0 -8.31,-2.12 -10.74,-5.69 l -61.97,-91.27 -26.26,87.71 c -1.66,5.49 -6.72,9.25 -12.46,9.25 h -44.14 c -5.37,0 -9.09,-5.23 -7.38,-10.29 l 49.49,-145.22 -46.53,-65.68 c -3.67,-5.19 0.02,-12.29 6.34,-12.29 h 44.87 c 4.26,0 8.26,2.08 10.67,5.58 l 149.44,215.69 c 3.57,5.16 -0.11,12.21 -6.4,12.21"
         style="fill:#002c8a;fill-opacity:1;fill-rule:evenodd;stroke:none"
         id="path30"
         inkscape:connector-curvature="0" /><path
         d="m 3434.08,3439.13 h -57.63 l 12.94,60.17 h 57.63 l -12.94,-60.17"
         style="fill:#002c8a;fill-opacity:1;fill-rule:evenodd;stroke:none"
         id="path32"
         inkscape:connector-curvature="0" /><path
         d="m 3719.11,3439.07 h -58.46 l 32.85,140.72 -58.19,-88.43 h -41.15 l -17.99,95.08 -33.95,-147.37 h -55.97 l 51.22,222.27 h 66.68 l 24.2,-108.44 73.92,108.44 h 68.05 l -51.21,-222.27"
         style="fill:#002c8a;fill-opacity:1;fill-rule:evenodd;stroke:none"
         id="path34"
         inkscape:connector-curvature="0" /><path
         d="m 3864.05,3434.49 c -63.04,0 -100.21,34.58 -85.96,96.42 12.82,55.65 54.56,81.32 111.56,81.32 53.38,0.73 78.99,-26.94 67.74,-81.49 l -4.33,-18.81 h -123.07 c -1.48,-27.49 19.39,-38.18 46.98,-38.18 20.97,0 44.03,7.98 61.65,19.15 h 6.47 l -9.96,-44.92 c -25.19,-8.92 -43.7,-13.49 -71.08,-13.49 z m 41.56,110.58 c 2.34,20.91 -7.22,32.59 -25.61,32.59 -21.71,0 -37.46,-12.3 -44.97,-32.59 h 70.58"
         style="fill:#002c8a;fill-opacity:1;fill-rule:evenodd;stroke:none"
         id="path36"
         inkscape:connector-curvature="0" /></g></g></svg>